<svg id="レイヤー_1" data-name="レイヤー 1" xmlns="http://www.w3.org/2000/svg" viewBox="0 0 455.79 208.27"><defs><style>.cls-1{fill:#efefef;}.cls-2{fill:#92539d;}.cls-3{fill:#1a1a1a;}.cls-4{fill:#ea6182;}.cls-5{fill:#579535;}</style></defs><path class="cls-1" d="M444.68,93.36c4-6.78,4.66-15.26,2.24-23.36,5.9-6.06,9.24-13.89,8.84-21.74a12.8,12.8,0,0,0-3-7.62,12.84,12.84,0,0,0-3.18-7.55c-5.21-5.89-13.07-9.16-21.52-9.36-3.94-7.48-10.36-13.07-17.95-15.12a12.79,12.79,0,0,0-8.17.51,12.83,12.83,0,0,0-8.17.69c-7,3.06-12.46,9.29-15.33,17a24.53,24.53,0,0,0-3.72-2.43c-3.63-4.83-10.25-9.89-22.22-10.9l-18.86-1.58a25.89,25.89,0,0,0-3.12-4.13A24,24,0,0,0,314.79.09a23.58,23.58,0,0,0-21.11,9.2c-7.55,9.47-18.23,18.06-31.74,25.52a23.4,23.4,0,0,0-12.58,19.08,23.12,23.12,0,0,0,5.74,17.52,23.76,23.76,0,0,0,10,6.87c0,.23.07.45.1.67A23.7,23.7,0,0,0,251,99.25a25.52,25.52,0,0,0,.84,9.13,24,24,0,0,0-4,10.48,76.72,76.72,0,0,0-8.44-4.94l-.16-.08A19.34,19.34,0,0,0,228.34,112c-.65.09-1.3.2-1.94.34a19.49,19.49,0,0,0-3.2-3.08,18.93,18.93,0,0,0-8.56-3.67A19.27,19.27,0,0,0,209.31,99a19.61,19.61,0,0,0-26.5,2.22l-.53-.38A23.79,23.79,0,0,0,167,97.05c-.46-.5-.93-1-1.41-1.45.77-.94,1.51-1.92,2.21-2.95a41.21,41.21,0,0,0,7-28.93A36.58,36.58,0,0,0,171,51a18.89,18.89,0,0,0,3.19-3.42,19.3,19.3,0,0,0-2.81-25.95l-.11-.09a47.71,47.71,0,0,0-22.7-10.76,18.93,18.93,0,0,0-18,6.21,18.55,18.55,0,0,0-4.27-1.19,19.61,19.61,0,0,0-5.42-7.61,19.17,19.17,0,0,0-15-4.61,19.4,19.4,0,0,0-13.19,7.51,19.17,19.17,0,0,0-4,12A19.37,19.37,0,0,0,71.91,44.48a18.78,18.78,0,0,0,14.85,16.6l.1,0c1.48.33,3,.6,4.46.8C87.75,65.19,83.68,69.14,79,73.79a19.41,19.41,0,0,0-20.81-4.27c-8.62,3.27-14.47,4.39-18.2,4.67,0-22.48.31-40.28.92-52.89v-.2A20.23,20.23,0,0,0,35.13,6.18,20.1,20.1,0,0,0,20.48,0,20,20,0,0,0,6.08,6a20,20,0,0,0-6,14.37L0,69C0,82.83,1.5,91.77,4.84,97.92c4,7.47,12.59,16.38,30.64,16.38,9.84,0,20.57-2.06,32-6.11a20,20,0,0,0-1.38,4.1c-4,18.33-6.37,32.89-7.12,44.51a154.74,154.74,0,0,0,1.09,31.58,20.1,20.1,0,0,0,18.83,17.34c.42,0,.83,0,1.24,0a19.92,19.92,0,0,0,12.41-4.3,17.91,17.91,0,0,0,1.4-1.19c5.5,4.73,12.75,7.4,21.59,7.91q1.53.09,3,.09c8,0,14-2,18.47-4.79a19.23,19.23,0,0,0,9,2.87,19.92,19.92,0,0,0,20.9-17.65,18.93,18.93,0,0,0,10.42,3.12,20.43,20.43,0,0,0,2.46-.15c.64-.08,1.26-.2,1.88-.33a26.61,26.61,0,0,0,11.84,12.48l.15.08a35.42,35.42,0,0,0,16.58,3.85,49,49,0,0,0,5.84-.37c9.48-1.17,17-4.87,21.9-10.61a19.79,19.79,0,0,0,20.93-5.42A23.88,23.88,0,0,0,272.56,197c.69.06,1.37.09,2.05.09a24.94,24.94,0,0,0,13.49-4l.1-.06c1.66-1.08,3.29-2.17,4.91-3.28a24.4,24.4,0,0,0,4.55,8,23.67,23.67,0,0,0,16.39,8.55l15.5,1.31c3.12.26,6,.39,8.62.39,8.72,0,14.95-1.46,19.62-4.51,7.68-4.93,12-14.32,13.21-28.68l.09-1.06a204.91,204.91,0,0,0,27.18,28.41l.11.1a25,25,0,0,0,14.13,5.94q1.11.09,2.22.09a24.87,24.87,0,0,0,15.64-44q-3-2.52-5.77-5a24,24,0,0,0,20.53-33,25.92,25.92,0,0,0-.68-32.6A4,4,0,0,0,444.68,93.36Zm-189,56A19.24,19.24,0,0,0,258.9,143a23.37,23.37,0,0,0,10.38,3.44q-3.6,2.55-7.54,5l-.08,0a24.62,24.62,0,0,0-8.68,9.11,87,87,0,0,0-8.57-4.32A19.06,19.06,0,0,0,255.65,149.31Zm-151-26.62c0-.06,0-.12.05-.19a20,20,0,0,0,.85-4.73,20.57,20.57,0,0,0-.1-3.52,21.16,21.16,0,0,0,8.15,1.62l1.12,0a20.16,20.16,0,0,0-.16,2.07V118l0,1.81Q109.4,121.11,104.6,122.69ZM152,163.75l.42-10.2a19.65,19.65,0,0,0,3.86-1.12,18.31,18.31,0,0,0,3.78,3.62,20.08,20.08,0,0,0,3,1.76q-1.36,2.82-2.83,5.64c0,.05,0,.11-.08.16a19.7,19.7,0,0,0-1.86,5.71A76.12,76.12,0,0,0,152,163.75Z"/><path class="cls-2" d="M72.2,87.92a6.4,6.4,0,0,1-4.35,6.41q-17.79,7.14-32.37,7.14-14.17,0-19.34-9.62Q12.83,85.75,12.83,69l.1-48.61a7.58,7.58,0,0,1,7.55-7.55A7.39,7.39,0,0,1,26,15.15a7.28,7.28,0,0,1,2.17,5.54q-.93,19.44-.93,54,0,7.65,2.9,10.34,2.28,2.07,8,2.07,10,0,24.72-5.58A6.9,6.9,0,0,1,65.27,81a6.59,6.59,0,0,1,4.91,2.07A6.76,6.76,0,0,1,72.2,87.92Z"/><path class="cls-3" d="M162.11,65.24q-1.06-9-6.89-13.81-6.15-5-15.21-3.92-8.69,1-22,9.75-1-8.38-1.3-11.71a50.81,50.81,0,0,0,10.35-6.09,5.86,5.86,0,0,0,2.49-5.64A6,6,0,0,0,120,29.53a39.3,39.3,0,0,1-4.43,2.71c-.27-3.34-.48-6.54-.66-9.62a6.48,6.48,0,0,0-2.35-4.77,6.25,6.25,0,0,0-5-1.57,6.46,6.46,0,0,0-4.54,2.57,6.27,6.27,0,0,0-1.29,4.95q.64,4.57,1.59,12.48l-1.46.17a24.6,24.6,0,0,1-9.08-.59,6.33,6.33,0,0,0-2.38-.11A6.53,6.53,0,0,0,84.65,43a6.06,6.06,0,0,0,5,5.64,38.61,38.61,0,0,0,13.14.7l2-.24,2,16.39q-7.2,5.91-19.56,18.37A6,6,0,0,0,85.31,89a6.38,6.38,0,0,0,7.1,5.58,6,6,0,0,0,2.93-1.14,148.35,148.35,0,0,1,13.12,7.93,8.54,8.54,0,0,0,6.23,1.63,8.69,8.69,0,0,0,6-3.4,8.35,8.35,0,0,0,1.78-6.64q-1.47-10.6-3-23.68,11.67-8.33,19.27-9.23,9.17-1.1,10.26,8a14.83,14.83,0,0,1-2.26,10.51q-3,4.36-7.28,4.88a6.32,6.32,0,0,1-3.53-1,6.88,6.88,0,0,0-4.12-.94,6.23,6.23,0,0,0-4.27,2.34,6,6,0,0,0-1.32,4.66A6.73,6.73,0,0,0,129,93q4.59,3.6,11.81,2.74,10.23-1.23,16.43-10.28A28.58,28.58,0,0,0,162.11,65.24ZM101.46,85.86a88,88,0,0,1,6.85-7.25l1.29,10.83C105,87.41,102.29,86.22,101.46,85.86Z"/><path class="cls-3" d="M162.89,31.22a6.28,6.28,0,0,1,2.17,4.09,6.45,6.45,0,0,1-1.27,4.7,6.07,6.07,0,0,1-4.4,2.51,6.4,6.4,0,0,1-4.9-1.3,31.76,31.76,0,0,0-11.06-5.6,5.93,5.93,0,0,1-4.6-5.38,6.08,6.08,0,0,1,1.27-4.66,6,6,0,0,1,4.13-2.32,5.61,5.61,0,0,1,1.88.07A34.92,34.92,0,0,1,162.89,31.22Z"/><path class="cls-3" d="M217.79,123.57a6.18,6.18,0,0,1-4.23,6.56q-8.69,2.66-15.3,5.16a341.38,341.38,0,0,1-14.78,39.83,6.21,6.21,0,0,1-5.27,3.82,6.43,6.43,0,0,1-4.82-1.34,6.26,6.26,0,0,1-2.52-4.39,6.67,6.67,0,0,1,.71-3.85,204.82,204.82,0,0,0,12.09-27.92q-5.89,2.72-9.52,4.64a6.57,6.57,0,0,1-2.19.67,6.15,6.15,0,0,1-4.45-1.13,6.2,6.2,0,0,1,1-10.43q11.22-5.34,19.61-8.75,1.72-6.85,2.79-13.41a5.91,5.91,0,0,1,5.58-5.34,6.29,6.29,0,0,1,7.11,5.45,7.72,7.72,0,0,1-.1,2.39l-1.39,5.61q7.78-2.73,8.85-2.87a5.94,5.94,0,0,1,4.46,1.23A5.79,5.79,0,0,1,217.79,123.57Z"/><path class="cls-3" d="M251.08,177.46a6.36,6.36,0,0,0-3.19-5,71.19,71.19,0,0,0-17.47-7.64q-2.07-8.66-2.41-11.48a27.61,27.61,0,0,1-.11-3.26,25.9,25.9,0,0,0-.1-3.25,6,6,0,0,0-2.33-4.07,5.91,5.91,0,0,0-4.57-1.31q-5,.62-5.55,5.53-.65,5.24,1.53,15.65a43.6,43.6,0,0,0-6.4.29q-8.67,1.08-13.74,5.76a14.14,14.14,0,0,0-4.64,12.85,13.69,13.69,0,0,0,7.48,10.95q6.15,3.19,14.92,2.12,16-2,17.39-15.41a74,74,0,0,1,8.9,4.74,6.4,6.4,0,0,0,4.38.94,6.54,6.54,0,0,0,4.53-2.54A6.45,6.45,0,0,0,251.08,177.46Zm-33,3q-1.5,2.27-5.6,2.77-7.5.92-8.05-3.46-.62-5,7.38-6a21.15,21.15,0,0,1,7.31.68Q219.43,178.5,218.09,180.45Z"/><path class="cls-3" d="M246.83,136.71a6.36,6.36,0,0,1-5.55,7.12,6.41,6.41,0,0,1-4.91-1.27,81.3,81.3,0,0,0-8.87-6.13,6,6,0,0,1-3.05-4.68,6.21,6.21,0,0,1,5.47-7,6.51,6.51,0,0,1,3.64.64,65.94,65.94,0,0,1,10.95,7A6.24,6.24,0,0,1,246.83,136.71Z"/><path class="cls-4" d="M94.66,164.69a85.55,85.55,0,0,0-7.3,22.16,7.08,7.08,0,0,1-2.7,4.5A7.47,7.47,0,0,1,75,191a7.1,7.1,0,0,1-2.28-4.38,141.29,141.29,0,0,1-1-29q1-16.32,6.84-42.6a6.86,6.86,0,0,1,2.68-4.14,6.94,6.94,0,0,1,4.7-1.44,6.78,6.78,0,0,1,5,2.42A7,7,0,0,1,92.69,117a7.44,7.44,0,0,1-.3,1.75q-7.33,24.33-8,43.46l1-2a5.13,5.13,0,0,1,8.52-1.16,5.07,5.07,0,0,1,1.28,3.7A4.68,4.68,0,0,1,94.66,164.69Z"/><path class="cls-4" d="M149,141a6.5,6.5,0,0,0,4.45-1.81,6.7,6.7,0,0,0-4.92-11.48c-2.14.08-4.75.27-7.8.58q.27-4.76.65-9.39a6.61,6.61,0,0,0-1.71-5.23,6.87,6.87,0,0,0-4.89-2.41,6.69,6.69,0,0,0-5.18,1.87,6.89,6.89,0,0,0-2.27,5l-.18,12a134.24,134.24,0,0,0-19.78,5.06,5.66,5.66,0,0,0-4.15,5.46,5.72,5.72,0,0,0,1.6,4.44,6.07,6.07,0,0,0,4.24,2,5.48,5.48,0,0,0,2.09-.29,136.11,136.11,0,0,1,15.65-3.74q-.27,13.56-.65,21.72a48,48,0,0,0-8-1.1q-8.67-.51-14.28,3.31a14,14,0,0,0-6.37,11.44,13.89,13.89,0,0,0,4.59,11.82q5,4.49,14.21,5,15.18.88,20.18-10.11a68,68,0,0,1,5.27,5.54,6.88,6.88,0,0,0,5,2.73,7.06,7.06,0,0,0,7.43-6.61,6.88,6.88,0,0,0-1.77-5.18,62.67,62.67,0,0,0-13.52-11.57l1.17-28.73C143.12,141.21,146.09,141.08,149,141Zm-32.64,42.33q-6.92-.41-6.65-5,.26-4.23,7.48-3.81a21.49,21.49,0,0,1,8.25,2.45Q124.42,183.84,116.36,183.37Z"/><path class="cls-4" d="M174,117.28l6.16.47a12.47,12.47,0,0,0-5.11-6.37c-4.32-3-10.9-.85-10.9-.85s.42,6.9,4.73,9.86a12.54,12.54,0,0,0,7.79,2.46Z"/><path class="cls-4" d="M152.75,110.27,146.08,106c-.63,2.8,0,6.62,1.89,10.32,3.08,6,11.82,7.61,11.82,7.61s3.73-8.06.65-14c-1.92-3.7-4.67-6.41-7.32-7.52Z"/><path class="cls-3" d="M313.14,152.33a11.73,11.73,0,0,0-19.83-9.28,133.24,133.24,0,0,1-24.84,19.32,11.18,11.18,0,0,0-5.55,8.94,11.53,11.53,0,0,0,2.76,8.74,11.33,11.33,0,0,0,8,4.17,11.93,11.93,0,0,0,7.57-2,184.13,184.13,0,0,0,28.52-22.62A11.1,11.1,0,0,0,313.14,152.33Z"/><path class="cls-3" d="M422.18,174.11q-15-12.47-23.47-23.19a11.21,11.21,0,0,0-8-4.48,11.49,11.49,0,0,0-8.53,2.69A11,11,0,0,0,378,157a11.41,11.41,0,0,0,2.71,8.24,191.49,191.49,0,0,0,25.93,27.19,12.24,12.24,0,0,0,6.95,3,12,12,0,0,0,8.6-21.29Z"/><path class="cls-3" d="M431.87,99.87a95.42,95.42,0,0,1-11.09-7.17,22,22,0,0,1-13.25-7.14c-4.85,7.08-12.5,10.67-18.9,9.25l.25-7.92-7,3.74c-4.11-5.09-4.3-13.55-.12-21-8.23-2.42-14-8.59-14.63-15.12l7.6-2.21L369,46.78A14.37,14.37,0,0,1,374.35,42c-.36-.65-.72-1.3-1.09-1.94a11.28,11.28,0,0,0-7.35-5.42q-3-7.45-14.5-8.43L324.19,24a10.83,10.83,0,0,0-3.08-7.46,11,11,0,0,0-7.39-3.62,10.8,10.8,0,0,0-10,4.36q-13,16.32-35.64,28.82a10.63,10.63,0,0,0-6,8.9,10.44,10.44,0,0,0,2.63,8,10.94,10.94,0,0,0,7.58,3.84,10.4,10.4,0,0,0,6.33-1.47,187.33,187.33,0,0,0,30.86-21.82l26.82,2.26q-5.14,6.38-8.63,9.88-6-4.51-9.24-6.78a9.72,9.72,0,0,0-4.85-1.81,10.09,10.09,0,0,0-7.3,2.29,9.28,9.28,0,0,0-3.67,6.79,9.56,9.56,0,0,0,4.05,9c2.5,1.94,4.26,3.29,5.26,4q-6.62,4.84-7,5-6.34-5.34-9.74-7.83a10.83,10.83,0,0,0-17.46,7.74,10.1,10.1,0,0,0,3.83,9.13l2.43,2q-6.43,2.86-12.42,5-7.23,2.59-7.86,10.14-.62,7.37,5.86,11.3-8.54,1.48-9.25,10a11.22,11.22,0,0,0,10.19,12.07l64.78,5.45L333.13,165c-.26,3.18-.9,5.13-1.89,5.84s-3.15.94-6.46.66l-7.75-.65a11.37,11.37,0,0,0-1.9,22.65l15.5,1.31q15.09,1.26,20.18-2.11,6.13-3.88,7.41-19l2.72-32.39,61,5.13a11.17,11.17,0,0,0,1.87-22.26l-143.07-12a207.79,207.79,0,0,0,34.62-19.1,10.4,10.4,0,0,0,2.81,7,10.15,10.15,0,0,0,6.92,3.39L378.76,108a10.42,10.42,0,0,0,7.48-2.17,9.69,9.69,0,0,0,3.87-6.68A191,191,0,0,0,418.49,121a13.14,13.14,0,0,0,5.84,1.9,12.27,12.27,0,0,0,8.94-2.75,11.69,11.69,0,0,0,4.42-8.54Q438.37,103.61,431.87,99.87ZM329.26,82.62a224.66,224.66,0,0,0,27-26.14,195.82,195.82,0,0,0,21.86,30.26Z"/><path class="cls-5" d="M420.24,92.27l.54.43a14.32,14.32,0,0,0,6.8-.75l-1.4-7.79,7.45,2.68c3.33-5.64,2.28-14-2.95-20.83,7.79-3.6,12.6-10.55,12.27-17.1l-7.85-1.07L440,41.58c-4.34-4.91-12.65-6.51-20.73-3.63-1-8.52-6.14-15.25-12.46-17l-3.45,7.13-4.45-6.55c-6,2.61-10.1,10-9.86,18.59A22,22,0,0,0,374.35,42a42.61,42.61,0,0,0,3.06,5C396,71.89,399.56,74.69,420.24,92.27Z"/></svg>